<svg id="visual" viewBox="0 0 1920 360" width="1920" height="360" xmlns="http://www.w3.org/2000/svg" xmlns:xlink="http://www.w3.org/1999/xlink" version="1.1"><rect x="0" y="0" width="1920" height="360" fill="#0A0A0A"></rect><path d="M0 192L18.8 188.8C37.7 185.7 75.3 179.3 113 180.5C150.7 181.7 188.3 190.3 226 192.2C263.7 194 301.3 189 339 186C376.7 183 414.3 182 452 186.5C489.7 191 527.3 201 565 200.2C602.7 199.3 640.3 187.7 678 182.7C715.7 177.7 753.3 179.3 791 183.2C828.7 187 866.3 193 903.8 194.5C941.3 196 978.7 193 1016.2 189C1053.7 185 1091.3 180 1129 177.2C1166.7 174.3 1204.3 173.7 1242 179.3C1279.7 185 1317.3 197 1355 200.5C1392.7 204 1430.3 199 1468 193.5C1505.7 188 1543.3 182 1581 185.2C1618.7 188.3 1656.3 200.7 1694 207.3C1731.7 214 1769.3 215 1807 208.2C1844.7 201.3 1882.3 186.7 1901.2 179.3L1920 172L1920 361L1901.2 361C1882.3 361 1844.7 361 1807 361C1769.3 361 1731.7 361 1694 361C1656.3 361 1618.7 361 1581 361C1543.3 361 1505.7 361 1468 361C1430.3 361 1392.7 361 1355 361C1317.3 361 1279.7 361 1242 361C1204.3 361 1166.7 361 1129 361C1091.3 361 1053.7 361 1016.2 361C978.7 361 941.3 361 903.8 361C866.3 361 828.7 361 791 361C753.3 361 715.7 361 678 361C640.3 361 602.7 361 565 361C527.3 361 489.7 361 452 361C414.3 361 376.7 361 339 361C301.3 361 263.7 361 226 361C188.3 361 150.7 361 113 361C75.3 361 37.7 361 18.8 361L0 361Z" fill="#fe6e60"></path><path d="M0 216L18.8 220.5C37.7 225 75.3 234 113 237.5C150.7 241 188.3 239 226 238.2C263.7 237.3 301.3 237.7 339 239C376.7 240.3 414.3 242.7 452 239C489.7 235.3 527.3 225.7 565 219.5C602.7 213.3 640.3 210.7 678 214.7C715.7 218.7 753.3 229.3 791 233.2C828.7 237 866.3 234 903.8 228.7C941.3 223.3 978.7 215.7 1016.2 216.2C1053.7 216.7 1091.3 225.3 1129 224C1166.7 222.7 1204.3 211.3 1242 213.5C1279.7 215.7 1317.3 231.3 1355 236.5C1392.7 241.7 1430.3 236.3 1468 229.5C1505.7 222.7 1543.3 214.3 1581 210.8C1618.7 207.3 1656.3 208.7 1694 211.3C1731.7 214 1769.3 218 1807 220.2C1844.7 222.3 1882.3 222.7 1901.2 222.8L1920 223L1920 361L1901.2 361C1882.3 361 1844.7 361 1807 361C1769.3 361 1731.7 361 1694 361C1656.3 361 1618.7 361 1581 361C1543.3 361 1505.7 361 1468 361C1430.3 361 1392.7 361 1355 361C1317.3 361 1279.7 361 1242 361C1204.3 361 1166.7 361 1129 361C1091.3 361 1053.7 361 1016.2 361C978.7 361 941.3 361 903.8 361C866.3 361 828.7 361 791 361C753.3 361 715.7 361 678 361C640.3 361 602.7 361 565 361C527.3 361 489.7 361 452 361C414.3 361 376.7 361 339 361C301.3 361 263.7 361 226 361C188.3 361 150.7 361 113 361C75.3 361 37.7 361 18.8 361L0 361Z" fill="#f96759"></path><path d="M0 227L18.8 234.3C37.7 241.7 75.3 256.3 113 261.3C150.7 266.3 188.3 261.7 226 257.8C263.7 254 301.3 251 339 248.2C376.7 245.3 414.3 242.7 452 239.5C489.7 236.3 527.3 232.7 565 232C602.7 231.3 640.3 233.7 678 240.3C715.7 247 753.3 258 791 258.2C828.7 258.3 866.3 247.7 903.8 246.3C941.3 245 978.7 253 1016.2 251.3C1053.7 249.7 1091.3 238.3 1129 238.7C1166.7 239 1204.3 251 1242 257.3C1279.7 263.7 1317.3 264.3 1355 265C1392.7 265.7 1430.3 266.3 1468 263.7C1505.7 261 1543.3 255 1581 251C1618.7 247 1656.3 245 1694 242.2C1731.7 239.3 1769.3 235.7 1807 237C1844.7 238.3 1882.3 244.7 1901.2 247.8L1920 251L1920 361L1901.2 361C1882.3 361 1844.7 361 1807 361C1769.3 361 1731.7 361 1694 361C1656.3 361 1618.7 361 1581 361C1543.3 361 1505.7 361 1468 361C1430.3 361 1392.7 361 1355 361C1317.3 361 1279.7 361 1242 361C1204.3 361 1166.7 361 1129 361C1091.3 361 1053.7 361 1016.2 361C978.7 361 941.3 361 903.8 361C866.3 361 828.7 361 791 361C753.3 361 715.7 361 678 361C640.3 361 602.7 361 565 361C527.3 361 489.7 361 452 361C414.3 361 376.7 361 339 361C301.3 361 263.7 361 226 361C188.3 361 150.7 361 113 361C75.3 361 37.7 361 18.8 361L0 361Z" fill="#f46052"></path><path d="M0 268L18.8 271C37.7 274 75.3 280 113 284C150.7 288 188.3 290 226 287.8C263.7 285.7 301.3 279.3 339 274.8C376.7 270.3 414.3 267.7 452 268.2C489.7 268.7 527.3 272.3 565 273.2C602.7 274 640.3 272 678 270.5C715.7 269 753.3 268 791 266.3C828.7 264.7 866.3 262.3 903.8 261.8C941.3 261.3 978.7 262.7 1016.2 264.3C1053.7 266 1091.3 268 1129 269.5C1166.7 271 1204.3 272 1242 271C1279.7 270 1317.3 267 1355 269.3C1392.7 271.7 1430.3 279.3 1468 282.5C1505.7 285.7 1543.3 284.3 1581 281.3C1618.7 278.3 1656.3 273.7 1694 271.7C1731.7 269.7 1769.3 270.3 1807 271.5C1844.7 272.7 1882.3 274.3 1901.2 275.2L1920 276L1920 361L1901.2 361C1882.3 361 1844.7 361 1807 361C1769.3 361 1731.7 361 1694 361C1656.3 361 1618.7 361 1581 361C1543.3 361 1505.7 361 1468 361C1430.3 361 1392.7 361 1355 361C1317.3 361 1279.7 361 1242 361C1204.3 361 1166.7 361 1129 361C1091.3 361 1053.7 361 1016.2 361C978.7 361 941.3 361 903.8 361C866.3 361 828.7 361 791 361C753.3 361 715.7 361 678 361C640.3 361 602.7 361 565 361C527.3 361 489.7 361 452 361C414.3 361 376.7 361 339 361C301.3 361 263.7 361 226 361C188.3 361 150.7 361 113 361C75.3 361 37.7 361 18.8 361L0 361Z" fill="#ef594a"></path><path d="M0 300L18.8 299C37.7 298 75.3 296 113 295.3C150.7 294.7 188.3 295.3 226 296.2C263.7 297 301.3 298 339 299.3C376.7 300.7 414.3 302.3 452 302C489.7 301.7 527.3 299.3 565 300.5C602.7 301.7 640.3 306.3 678 309.7C715.7 313 753.3 315 791 313.7C828.7 312.3 866.3 307.7 903.8 307.8C941.3 308 978.7 313 1016.2 310.8C1053.7 308.7 1091.3 299.3 1129 299.3C1166.7 299.3 1204.3 308.7 1242 313.5C1279.7 318.3 1317.3 318.7 1355 314.5C1392.7 310.3 1430.3 301.7 1468 299.2C1505.7 296.7 1543.3 300.3 1581 301.7C1618.7 303 1656.3 302 1694 301.7C1731.7 301.3 1769.3 301.7 1807 303.5C1844.7 305.3 1882.3 308.7 1901.2 310.3L1920 312L1920 361L1901.2 361C1882.3 361 1844.7 361 1807 361C1769.3 361 1731.7 361 1694 361C1656.3 361 1618.7 361 1581 361C1543.3 361 1505.7 361 1468 361C1430.3 361 1392.7 361 1355 361C1317.3 361 1279.7 361 1242 361C1204.3 361 1166.7 361 1129 361C1091.3 361 1053.7 361 1016.2 361C978.7 361 941.3 361 903.8 361C866.3 361 828.7 361 791 361C753.3 361 715.7 361 678 361C640.3 361 602.7 361 565 361C527.3 361 489.7 361 452 361C414.3 361 376.7 361 339 361C301.3 361 263.7 361 226 361C188.3 361 150.7 361 113 361C75.3 361 37.7 361 18.8 361L0 361Z" fill="#ea5243"></path><path d="M0 317L18.8 321.3C37.7 325.7 75.3 334.3 113 337.3C150.7 340.3 188.3 337.7 226 337.5C263.7 337.3 301.3 339.7 339 336.5C376.7 333.3 414.3 324.7 452 320.3C489.7 316 527.3 316 565 317.7C602.7 319.3 640.3 322.7 678 325.8C715.7 329 753.3 332 791 332.7C828.7 333.3 866.3 331.7 903.8 332.7C941.3 333.7 978.7 337.3 1016.2 337.3C1053.7 337.3 1091.3 333.7 1129 332.7C1166.7 331.7 1204.3 333.3 1242 330.8C1279.7 328.3 1317.3 321.7 1355 319.7C1392.7 317.7 1430.3 320.3 1468 320.8C1505.7 321.3 1543.3 319.7 1581 323.2C1618.7 326.7 1656.3 335.3 1694 336.3C1731.7 337.3 1769.3 330.7 1807 327C1844.7 323.3 1882.3 322.7 1901.2 322.3L1920 322L1920 361L1901.2 361C1882.3 361 1844.7 361 1807 361C1769.3 361 1731.7 361 1694 361C1656.3 361 1618.7 361 1581 361C1543.3 361 1505.7 361 1468 361C1430.3 361 1392.7 361 1355 361C1317.3 361 1279.7 361 1242 361C1204.3 361 1166.7 361 1129 361C1091.3 361 1053.7 361 1016.2 361C978.7 361 941.3 361 903.8 361C866.3 361 828.7 361 791 361C753.3 361 715.7 361 678 361C640.3 361 602.7 361 565 361C527.3 361 489.7 361 452 361C414.3 361 376.7 361 339 361C301.3 361 263.7 361 226 361C188.3 361 150.7 361 113 361C75.3 361 37.7 361 18.8 361L0 361Z" fill="#e54b3c"></path></svg>