<svg id="visual" viewBox="0 0 1080 640" width="1080" height="640" xmlns="http://www.w3.org/2000/svg" xmlns:xlink="http://www.w3.org/1999/xlink" version="1.1"><rect x="0" y="0" width="1080" height="640" fill="#0A0A0A"></rect><path d="M0 308L18 314.7C36 321.3 72 334.7 108 343.2C144 351.7 180 355.3 216 348.8C252 342.3 288 325.7 324 321.3C360 317 396 325 432 331.5C468 338 504 343 540 346.2C576 349.3 612 350.7 648 349.3C684 348 720 344 756 334.5C792 325 828 310 864 316.2C900 322.3 936 349.7 972 356.5C1008 363.3 1044 349.7 1062 342.8L1080 336L1080 641L1062 641C1044 641 1008 641 972 641C936 641 900 641 864 641C828 641 792 641 756 641C720 641 684 641 648 641C612 641 576 641 540 641C504 641 468 641 432 641C396 641 360 641 324 641C288 641 252 641 216 641C180 641 144 641 108 641C72 641 36 641 18 641L0 641Z" fill="#fe6e60"></path><path d="M0 382L18 389.2C36 396.3 72 410.7 108 403.2C144 395.7 180 366.3 216 360.8C252 355.3 288 373.7 324 387C360 400.3 396 408.7 432 402.2C468 395.7 504 374.3 540 361.5C576 348.7 612 344.3 648 351.2C684 358 720 376 756 388.8C792 401.7 828 409.3 864 414C900 418.7 936 420.3 972 415.2C1008 410 1044 398 1062 392L1080 386L1080 641L1062 641C1044 641 1008 641 972 641C936 641 900 641 864 641C828 641 792 641 756 641C720 641 684 641 648 641C612 641 576 641 540 641C504 641 468 641 432 641C396 641 360 641 324 641C288 641 252 641 216 641C180 641 144 641 108 641C72 641 36 641 18 641L0 641Z" fill="#f96759"></path><path d="M0 387L18 389.2C36 391.3 72 395.7 108 402.3C144 409 180 418 216 417.3C252 416.7 288 406.3 324 398.2C360 390 396 384 432 381C468 378 504 378 540 379.5C576 381 612 384 648 390C684 396 720 405 756 409.7C792 414.3 828 414.7 864 408.8C900 403 936 391 972 394.2C1008 397.3 1044 415.7 1062 424.8L1080 434L1080 641L1062 641C1044 641 1008 641 972 641C936 641 900 641 864 641C828 641 792 641 756 641C720 641 684 641 648 641C612 641 576 641 540 641C504 641 468 641 432 641C396 641 360 641 324 641C288 641 252 641 216 641C180 641 144 641 108 641C72 641 36 641 18 641L0 641Z" fill="#f46052"></path><path d="M0 461L18 457.3C36 453.7 72 446.3 108 451.8C144 457.3 180 475.7 216 478.2C252 480.7 288 467.3 324 469.5C360 471.7 396 489.3 432 490.8C468 492.3 504 477.7 540 477.5C576 477.3 612 491.7 648 497C684 502.3 720 498.7 756 488.5C792 478.3 828 461.7 864 457.3C900 453 936 461 972 462.3C1008 463.7 1044 458.3 1062 455.7L1080 453L1080 641L1062 641C1044 641 1008 641 972 641C936 641 900 641 864 641C828 641 792 641 756 641C720 641 684 641 648 641C612 641 576 641 540 641C504 641 468 641 432 641C396 641 360 641 324 641C288 641 252 641 216 641C180 641 144 641 108 641C72 641 36 641 18 641L0 641Z" fill="#ef594a"></path><path d="M0 545L18 543.2C36 541.3 72 537.7 108 534.7C144 531.7 180 529.3 216 533C252 536.7 288 546.3 324 550.3C360 554.3 396 552.7 432 550.3C468 548 504 545 540 542.3C576 539.7 612 537.3 648 530C684 522.7 720 510.3 756 512.5C792 514.7 828 531.3 864 535.7C900 540 936 532 972 533.2C1008 534.3 1044 544.7 1062 549.8L1080 555L1080 641L1062 641C1044 641 1008 641 972 641C936 641 900 641 864 641C828 641 792 641 756 641C720 641 684 641 648 641C612 641 576 641 540 641C504 641 468 641 432 641C396 641 360 641 324 641C288 641 252 641 216 641C180 641 144 641 108 641C72 641 36 641 18 641L0 641Z" fill="#ea5243"></path><path d="M0 569L18 568C36 567 72 565 108 562C144 559 180 555 216 551.8C252 548.7 288 546.3 324 549.8C360 553.3 396 562.7 432 566C468 569.3 504 566.7 540 563C576 559.3 612 554.7 648 553.7C684 552.7 720 555.3 756 564.7C792 574 828 590 864 591.2C900 592.3 936 578.7 972 573.2C1008 567.7 1044 570.3 1062 571.7L1080 573L1080 641L1062 641C1044 641 1008 641 972 641C936 641 900 641 864 641C828 641 792 641 756 641C720 641 684 641 648 641C612 641 576 641 540 641C504 641 468 641 432 641C396 641 360 641 324 641C288 641 252 641 216 641C180 641 144 641 108 641C72 641 36 641 18 641L0 641Z" fill="#e54b3c"></path></svg>